
<svg version="1.0" xmlns="http://www.w3.org/2000/svg"
 width="96.000000pt" height="96.000000pt" viewBox="0 0 96.000000 96.000000"
 preserveAspectRatio="xMidYMid meet">

<g transform="translate(0.000000,96.000000) scale(0.100000,-0.100000)"
fill="#000000" stroke="none">
<path d="M120 505 l0 -376 25 -24 24 -25 311 0 311 0 24 25 25 24 0 376 0 375
-38 0 c-26 0 -41 -6 -50 -20 -7 -11 -21 -20 -32 -20 -11 0 -25 9 -32 20 -9 14
-24 20 -48 20 -24 0 -39 -6 -48 -20 -7 -11 -21 -20 -32 -20 -11 0 -25 9 -32
20 -9 14 -24 20 -48 20 -24 0 -39 -6 -48 -20 -7 -11 -21 -20 -32 -20 -11 0
-25 9 -32 20 -9 14 -24 20 -48 20 -24 0 -39 -6 -48 -20 -7 -11 -21 -20 -32
-20 -11 0 -25 9 -32 20 -9 14 -24 20 -50 20 l-38 0 0 -375z m600 135 l0 -40
-240 0 -240 0 0 40 0 40 240 0 240 0 0 -40z m-160 -200 l0 -40 -160 0 -160 0
0 40 0 40 160 0 160 0 0 -40z m160 0 l0 -40 -40 0 -40 0 0 40 0 40 40 0 40 0
0 -40z m-160 -160 l0 -40 -160 0 -160 0 0 40 0 40 160 0 160 0 0 -40z m160 0
l0 -40 -40 0 -40 0 0 40 0 40 40 0 40 0 0 -40z"/>
</g>
</svg>
