<svg
  width="24"
  height="24"
  viewBox="0 0 24 24"
  fill="none"
  xmlns="http://www.w3.org/2000/svg"
  preserveAspectRatio="none"
>
  <path
    d="M20.75 0.75H3.25C1.875 0.75 0.75 1.875 0.75 3.25V20.75C0.75 22.125 1.875 23.25 3.25 23.25H20.75C22.125 23.25 23.25 22.125 23.25 20.75V3.25C23.25 1.875 22.125 0.75 20.75 0.75ZM7.625 4.5C8.4875 4.5 9.1875 5.2 9.1875 6.0625C9.1875 6.925 8.4875 7.625 7.625 7.625C6.7625 7.625 6.0625 6.925 6.0625 6.0625C6.0625 5.2 6.7625 4.5 7.625 4.5ZM10.75 14.5H9.5V19.5H5.75V14.5H4.5V11.375C4.5 10 5.625 8.875 7 8.875H8.25C9.625 8.875 10.75 10 10.75 11.375V14.5ZM16.375 18.25L13.25 13.25H19.5L16.375 18.25ZM13.25 10.75L16.375 5.75L19.5 10.75H13.25Z"
    fill="black"
  />
</svg>