
<svg version="1.0" xmlns="http://www.w3.org/2000/svg"
 width="96.000000pt" height="96.000000pt" viewBox="0 0 96.000000 96.000000"
 preserveAspectRatio="xMidYMid meet">

<g transform="translate(0.000000,96.000000) scale(0.100000,-0.100000)"
fill="#000000" stroke="none">
<path d="M12 708 c-17 -17 -17 -439 0 -456 17 -17 919 -17 936 0 17 17 17 439
0 456 -17 17 -919 17 -936 0z m188 -128 l0 -60 -40 0 -40 0 0 60 0 60 40 0 40
0 0 -60z m160 -40 l0 -100 -40 0 -40 0 0 100 0 100 40 0 40 0 0 -100z m160 40
l0 -60 -40 0 -40 0 0 60 0 60 40 0 40 0 0 -60z m160 -40 l0 -100 -40 0 -40 0
0 100 0 100 40 0 40 0 0 -100z m160 40 l0 -60 -40 0 -40 0 0 60 0 60 40 0 40
0 0 -60z"/>
</g>
</svg>
