
<svg version="1.0" xmlns="http://www.w3.org/2000/svg"
 width="96.000000pt" height="96.000000pt" viewBox="0 0 96.000000 96.000000"
 preserveAspectRatio="xMidYMid meet">

<g transform="translate(0.000000,96.000000) scale(0.100000,-0.100000)"
fill="#000000" stroke="none">
<path d="M400 760 l0 -40 80 0 80 0 0 40 0 40 -80 0 -80 0 0 -40z"/>
<path d="M360 658 c-53 -18 -77 -34 -131 -88 -58 -57 -70 -75 -88 -134 -12
-37 -21 -79 -21 -92 l0 -24 360 0 360 0 0 25 c0 13 -10 55 -22 92 -18 57 -32
79 -88 134 -57 58 -75 70 -134 88 -86 26 -153 26 -236 -1z"/>
<path d="M80 240 l0 -40 400 0 400 0 0 40 0 40 -400 0 -400 0 0 -40z"/>
</g>
</svg>
